# xmcd CD database file
#
# Track frame offsets:
#	150
#	17902
#	33665
#	48552
#	62152
#	78047
#	85327
#	101115
#	123142
#	142737
#	161015
#	183795
#	206797
#	229435
#	244597
#	269297
#	294625
#	309782
#
# Disc length: 4319 seconds
#
# Revision: 0
# Processed by: cddbd v1.5.2PL0 Copyright (c) Steve Scherf et al.
# Submitted via: CDex 1.51
#
DISCID=f510dd12
DTITLE=Various Artist - Pure Moods
DYEAR=1994
DGENRE=New Age
TTITLE0=Sweet Lullaby - Deep forest
TTITLE1=Chariots of Fire - Vangelis
TTITLE2=Oxygene Part 4 - Jean Michel Jarre
TTITLE3=Theme from The Piano - Michelle
TTITLE4=Crockett's Theme - Jan Hammer
TTITLE5=The Flower Duet from Lakme - Alessandra Ruffini
TTITLE6=Love Theme from St. Elmo's Fire - David Foster
TTITLE7=Flor D'Luna - Santana
TTITLE8=Lily Was Here - David A. Stewart/Candy Dulfer
TTITLE9=The Eve of the War - Jeff Wayne's War of the Worlds
TTITLE10=Also Sprach Zarathustra 2001 - Deedato
TTITLE11=Falling - Julee Cruise
TTITLE12=Pachabel's Canon - Vienna Orchestra
TTITLE13=Stranger on the Shore - Acker Bilk
TTITLE14=Moments in Love - Enrico
TTITLE15=Space Oddity - L.S.O.
TTITLE16=Theme from Bilitis - Francis Lai
TTITLE17=Albatross - Fleetwood Mac
EXTD=YEAR: 1994
EXTT0=
EXTT1=
EXTT2=
EXTT3=
EXTT4=
EXTT5=
EXTT6=
EXTT7=
EXTT8=
EXTT9=
EXTT10=
EXTT11=
EXTT12=
EXTT13=
EXTT14=
EXTT15=
EXTT16=
EXTT17=
PLAYORDER=
